<mxfile host="Electron" agent="Mozilla/5.0 (Windows NT 10.0; Win64; x64) AppleWebKit/537.36 (KHTML, like Gecko) draw.io/24.7.17 Chrome/128.0.6613.36 Electron/32.0.1 Safari/537.36" version="24.7.17">
  <diagram name="Pagina-1" id="uUgXLi-EO5s1uarS8TtZ">
    <mxGraphModel dx="2736" dy="2298" grid="1" gridSize="10" guides="1" tooltips="1" connect="1" arrows="1" fold="1" page="1" pageScale="1" pageWidth="827" pageHeight="1169" math="0" shadow="0">
      <root>
        <mxCell id="0" />
        <mxCell id="1" parent="0" />
        <mxCell id="UHXLGbQEo70m4h4iFwpo-1" value="NODO" style="ellipse;whiteSpace=wrap;html=1;aspect=fixed;fontStyle=1;fillColor=#fff2cc;strokeColor=#d6b656;" vertex="1" parent="1">
          <mxGeometry x="360" y="280" width="80" height="80" as="geometry" />
        </mxCell>
        <mxCell id="UHXLGbQEo70m4h4iFwpo-2" value="Index" style="shape=process;whiteSpace=wrap;html=1;backgroundOutline=1;fillColor=#f8cecc;strokeColor=#b85450;fontSize=15;fontStyle=1" vertex="1" parent="1">
          <mxGeometry x="420" y="160" width="120" height="60" as="geometry" />
        </mxCell>
        <mxCell id="UHXLGbQEo70m4h4iFwpo-59" value="" style="edgeStyle=orthogonalEdgeStyle;rounded=0;orthogonalLoop=1;jettySize=auto;html=1;" edge="1" parent="1" source="UHXLGbQEo70m4h4iFwpo-4" target="UHXLGbQEo70m4h4iFwpo-49">
          <mxGeometry relative="1" as="geometry" />
        </mxCell>
        <mxCell id="UHXLGbQEo70m4h4iFwpo-4" value="Archivio Videogiochi" style="shape=process;whiteSpace=wrap;html=1;backgroundOutline=1;fillColor=#f8cecc;strokeColor=#b85450;fontSize=15;fontStyle=1" vertex="1" parent="1">
          <mxGeometry x="340" y="420" width="120" height="60" as="geometry" />
        </mxCell>
        <mxCell id="UHXLGbQEo70m4h4iFwpo-5" value="Pagina Profilo" style="shape=process;whiteSpace=wrap;html=1;backgroundOutline=1;fillColor=#f8cecc;strokeColor=#b85450;fontSize=15;fontStyle=1" vertex="1" parent="1">
          <mxGeometry x="180" y="250" width="120" height="60" as="geometry" />
        </mxCell>
        <mxCell id="UHXLGbQEo70m4h4iFwpo-6" value="Strumenti" style="shape=process;whiteSpace=wrap;html=1;backgroundOutline=1;fillColor=#f8cecc;strokeColor=#b85450;fontSize=15;fontStyle=1" vertex="1" parent="1">
          <mxGeometry x="500" y="250" width="120" height="60" as="geometry" />
        </mxCell>
        <mxCell id="UHXLGbQEo70m4h4iFwpo-7" value="Termini e&amp;nbsp;&lt;div&gt;&lt;span style=&quot;background-color: initial;&quot;&gt;Condizioni&lt;/span&gt;&lt;/div&gt;" style="shape=process;whiteSpace=wrap;html=1;backgroundOutline=1;fillColor=#f8cecc;strokeColor=#b85450;fontSize=15;fontStyle=1" vertex="1" parent="1">
          <mxGeometry x="490" y="360" width="120" height="60" as="geometry" />
        </mxCell>
        <mxCell id="UHXLGbQEo70m4h4iFwpo-8" value="DataBase" style="shape=process;whiteSpace=wrap;html=1;backgroundOutline=1;fillColor=#f8cecc;strokeColor=#b85450;fontSize=15;fontStyle=1" vertex="1" parent="1">
          <mxGeometry x="190" y="360" width="120" height="60" as="geometry" />
        </mxCell>
        <mxCell id="UHXLGbQEo70m4h4iFwpo-9" value="L&lt;span style=&quot;background-color: initial;&quot;&gt;ogin/&lt;/span&gt;&lt;div&gt;&lt;span style=&quot;background-color: initial;&quot;&gt;Accesso&lt;/span&gt;&lt;/div&gt;" style="shape=process;whiteSpace=wrap;html=1;backgroundOutline=1;fillColor=#f8cecc;strokeColor=#b85450;fontSize=15;fontStyle=1" vertex="1" parent="1">
          <mxGeometry x="260" y="160" width="120" height="60" as="geometry" />
        </mxCell>
        <mxCell id="UHXLGbQEo70m4h4iFwpo-22" value="" style="endArrow=classic;startArrow=classic;html=1;rounded=0;exitX=1;exitY=0;exitDx=0;exitDy=0;entryX=0;entryY=1;entryDx=0;entryDy=0;" edge="1" parent="1" source="UHXLGbQEo70m4h4iFwpo-8" target="UHXLGbQEo70m4h4iFwpo-1">
          <mxGeometry width="50" height="50" relative="1" as="geometry">
            <mxPoint x="400" y="360" as="sourcePoint" />
            <mxPoint x="450" y="310" as="targetPoint" />
          </mxGeometry>
        </mxCell>
        <mxCell id="UHXLGbQEo70m4h4iFwpo-23" value="" style="endArrow=classic;startArrow=classic;html=1;rounded=0;entryX=0;entryY=0.5;entryDx=0;entryDy=0;exitX=1;exitY=0.5;exitDx=0;exitDy=0;" edge="1" parent="1" source="UHXLGbQEo70m4h4iFwpo-1" target="UHXLGbQEo70m4h4iFwpo-6">
          <mxGeometry width="50" height="50" relative="1" as="geometry">
            <mxPoint x="410" y="370" as="sourcePoint" />
            <mxPoint x="460" y="320" as="targetPoint" />
          </mxGeometry>
        </mxCell>
        <mxCell id="UHXLGbQEo70m4h4iFwpo-24" value="" style="endArrow=classic;startArrow=classic;html=1;rounded=0;exitX=0;exitY=0;exitDx=0;exitDy=0;entryX=1;entryY=1;entryDx=0;entryDy=0;" edge="1" parent="1" source="UHXLGbQEo70m4h4iFwpo-7" target="UHXLGbQEo70m4h4iFwpo-1">
          <mxGeometry width="50" height="50" relative="1" as="geometry">
            <mxPoint x="420" y="380" as="sourcePoint" />
            <mxPoint x="470" y="330" as="targetPoint" />
          </mxGeometry>
        </mxCell>
        <mxCell id="UHXLGbQEo70m4h4iFwpo-25" value="" style="endArrow=classic;startArrow=classic;html=1;rounded=0;entryX=0.5;entryY=0;entryDx=0;entryDy=0;exitX=0.5;exitY=1;exitDx=0;exitDy=0;" edge="1" parent="1" source="UHXLGbQEo70m4h4iFwpo-1" target="UHXLGbQEo70m4h4iFwpo-4">
          <mxGeometry width="50" height="50" relative="1" as="geometry">
            <mxPoint x="430" y="390" as="sourcePoint" />
            <mxPoint x="480" y="340" as="targetPoint" />
          </mxGeometry>
        </mxCell>
        <mxCell id="UHXLGbQEo70m4h4iFwpo-26" value="" style="endArrow=classic;startArrow=classic;html=1;rounded=0;entryX=0.5;entryY=1;entryDx=0;entryDy=0;exitX=1;exitY=0;exitDx=0;exitDy=0;" edge="1" parent="1" source="UHXLGbQEo70m4h4iFwpo-1" target="UHXLGbQEo70m4h4iFwpo-2">
          <mxGeometry width="50" height="50" relative="1" as="geometry">
            <mxPoint x="440" y="400" as="sourcePoint" />
            <mxPoint x="490" y="350" as="targetPoint" />
          </mxGeometry>
        </mxCell>
        <mxCell id="UHXLGbQEo70m4h4iFwpo-27" value="" style="endArrow=classic;startArrow=classic;html=1;rounded=0;exitX=0.5;exitY=1;exitDx=0;exitDy=0;entryX=0;entryY=0;entryDx=0;entryDy=0;" edge="1" parent="1" source="UHXLGbQEo70m4h4iFwpo-9" target="UHXLGbQEo70m4h4iFwpo-1">
          <mxGeometry width="50" height="50" relative="1" as="geometry">
            <mxPoint x="450" y="410" as="sourcePoint" />
            <mxPoint x="500" y="360" as="targetPoint" />
          </mxGeometry>
        </mxCell>
        <mxCell id="UHXLGbQEo70m4h4iFwpo-28" value="" style="endArrow=classic;startArrow=classic;html=1;rounded=0;exitX=1;exitY=0.5;exitDx=0;exitDy=0;entryX=0;entryY=0.5;entryDx=0;entryDy=0;" edge="1" parent="1" source="UHXLGbQEo70m4h4iFwpo-5" target="UHXLGbQEo70m4h4iFwpo-1">
          <mxGeometry width="50" height="50" relative="1" as="geometry">
            <mxPoint x="460" y="420" as="sourcePoint" />
            <mxPoint x="510" y="370" as="targetPoint" />
          </mxGeometry>
        </mxCell>
        <mxCell id="UHXLGbQEo70m4h4iFwpo-32" value="" style="edgeStyle=orthogonalEdgeStyle;rounded=0;orthogonalLoop=1;jettySize=auto;html=1;" edge="1" parent="1" source="UHXLGbQEo70m4h4iFwpo-31" target="UHXLGbQEo70m4h4iFwpo-2">
          <mxGeometry relative="1" as="geometry" />
        </mxCell>
        <mxCell id="UHXLGbQEo70m4h4iFwpo-31" value="INIZIO" style="ellipse;shape=doubleEllipse;whiteSpace=wrap;html=1;aspect=fixed;fillColor=#e1d5e7;strokeColor=#9673a6;fontStyle=1;fontSize=17;" vertex="1" parent="1">
          <mxGeometry x="440" y="6.25" width="80" height="80" as="geometry" />
        </mxCell>
        <mxCell id="UHXLGbQEo70m4h4iFwpo-34" value="" style="edgeStyle=elbowEdgeStyle;elbow=horizontal;endArrow=classic;html=1;curved=0;rounded=0;endSize=8;startSize=8;exitX=0;exitY=0.5;exitDx=0;exitDy=0;entryX=0.5;entryY=0;entryDx=0;entryDy=0;" edge="1" parent="1" source="UHXLGbQEo70m4h4iFwpo-9" target="UHXLGbQEo70m4h4iFwpo-5">
          <mxGeometry width="50" height="50" relative="1" as="geometry">
            <mxPoint x="190" y="150" as="sourcePoint" />
            <mxPoint x="240" y="100" as="targetPoint" />
            <Array as="points">
              <mxPoint x="240" y="200" />
            </Array>
          </mxGeometry>
        </mxCell>
        <mxCell id="UHXLGbQEo70m4h4iFwpo-49" value="&lt;span style=&quot;background-color: initial;&quot;&gt;Lista Videogiochi:&lt;/span&gt;&lt;div&gt;&lt;ul&gt;&lt;li style=&quot;text-align: left;&quot;&gt;&lt;li style=&quot;text-align: left;&quot;&gt;Woordle&lt;/li&gt;&lt;li style=&quot;text-align: left;&quot;&gt;&lt;span style=&quot;white-space: normal;&quot;&gt;Tris&lt;/span&gt;&lt;/li&gt;&lt;li style=&quot;text-align: left;&quot;&gt;&lt;span style=&quot;white-space: normal;&quot;&gt;Forza 4&lt;/span&gt;&lt;/li&gt;&lt;li style=&quot;text-align: left;&quot;&gt;&lt;span style=&quot;white-space: normal;&quot;&gt;Impiccato&lt;/span&gt;&lt;/li&gt;&lt;li style=&quot;text-align: left;&quot;&gt;&lt;span style=&quot;white-space: normal;&quot;&gt;Gioco delle 3 carte&lt;/span&gt;&lt;/li&gt;&lt;li style=&quot;text-align: left;&quot;&gt;&lt;span style=&quot;white-space: normal;&quot;&gt;2048 Blocks Merge&lt;/span&gt;&lt;/li&gt;&lt;li style=&quot;text-align: left;&quot;&gt;&lt;span style=&quot;white-space: normal;&quot;&gt;Battaglia navale&lt;/span&gt;&lt;/li&gt;&lt;/li&gt;&lt;/ul&gt;&lt;/div&gt;" style="rounded=1;whiteSpace=wrap;html=1;fontStyle=1;fillColor=#d5e8d4;strokeColor=#82b366;" vertex="1" parent="1">
          <mxGeometry x="290" y="560" width="220" height="230" as="geometry" />
        </mxCell>
        <mxCell id="UHXLGbQEo70m4h4iFwpo-64" style="edgeStyle=orthogonalEdgeStyle;rounded=0;orthogonalLoop=1;jettySize=auto;html=1;entryX=0.5;entryY=0;entryDx=0;entryDy=0;" edge="1" parent="1" source="UHXLGbQEo70m4h4iFwpo-55" target="UHXLGbQEo70m4h4iFwpo-9">
          <mxGeometry relative="1" as="geometry" />
        </mxCell>
        <mxCell id="UHXLGbQEo70m4h4iFwpo-55" value="&lt;div style=&quot;text-align: center;&quot;&gt;&lt;br&gt;&lt;/div&gt;&lt;div style=&quot;text-align: center;&quot;&gt;LOGIN:&lt;/div&gt;&lt;ul&gt;&lt;li&gt;Nome&lt;/li&gt;&lt;li&gt;Cognome&lt;/li&gt;&lt;li&gt;Data di nascita&lt;/li&gt;&lt;li&gt;Residenza&lt;/li&gt;&lt;li&gt;Username&lt;/li&gt;&lt;li&gt;Email&lt;/li&gt;&lt;li&gt;Password&lt;/li&gt;&lt;li&gt;Conferma Password&lt;/li&gt;&lt;/ul&gt;&lt;div&gt;&lt;/div&gt;" style="rounded=0;whiteSpace=wrap;html=1;fillColor=#ffe6cc;strokeColor=#d79b00;align=left;fontStyle=1" vertex="1" parent="1">
          <mxGeometry x="20" y="-40" width="170" height="172.5" as="geometry" />
        </mxCell>
        <mxCell id="UHXLGbQEo70m4h4iFwpo-58" value="" style="endArrow=classic;startArrow=classic;html=1;rounded=0;exitX=0.5;exitY=0;exitDx=0;exitDy=0;entryX=0.5;entryY=1;entryDx=0;entryDy=0;" edge="1" parent="1" source="UHXLGbQEo70m4h4iFwpo-8" target="UHXLGbQEo70m4h4iFwpo-5">
          <mxGeometry width="50" height="50" relative="1" as="geometry">
            <mxPoint x="330" y="400" as="sourcePoint" />
            <mxPoint x="392" y="388" as="targetPoint" />
          </mxGeometry>
        </mxCell>
        <mxCell id="UHXLGbQEo70m4h4iFwpo-70" style="edgeStyle=orthogonalEdgeStyle;rounded=0;orthogonalLoop=1;jettySize=auto;html=1;entryX=0.5;entryY=0;entryDx=0;entryDy=0;" edge="1" parent="1" source="UHXLGbQEo70m4h4iFwpo-65" target="UHXLGbQEo70m4h4iFwpo-9">
          <mxGeometry relative="1" as="geometry" />
        </mxCell>
        <mxCell id="UHXLGbQEo70m4h4iFwpo-65" value="&lt;div style=&quot;text-align: center;&quot;&gt;&lt;br&gt;&lt;/div&gt;&lt;div style=&quot;text-align: center;&quot;&gt;ACCESSO&lt;span style=&quot;background-color: initial;&quot;&gt;:&lt;/span&gt;&lt;/div&gt;&lt;ul&gt;&lt;li&gt;Username&lt;/li&gt;&lt;li&gt;Email&lt;/li&gt;&lt;li&gt;Password&lt;/li&gt;&lt;li&gt;Conferma Password&lt;/li&gt;&lt;/ul&gt;" style="rounded=0;whiteSpace=wrap;html=1;fillColor=#ffe6cc;strokeColor=#d79b00;align=left;fontStyle=1" vertex="1" parent="1">
          <mxGeometry x="233.75" y="-110" width="172.5" height="110" as="geometry" />
        </mxCell>
        <mxCell id="UHXLGbQEo70m4h4iFwpo-68" value="" style="edgeStyle=orthogonalEdgeStyle;rounded=0;orthogonalLoop=1;jettySize=auto;html=1;" edge="1" parent="1" source="UHXLGbQEo70m4h4iFwpo-67" target="UHXLGbQEo70m4h4iFwpo-5">
          <mxGeometry relative="1" as="geometry" />
        </mxCell>
        <mxCell id="UHXLGbQEo70m4h4iFwpo-67" value="&lt;div style=&quot;&quot;&gt;Punteggio&lt;/div&gt;" style="rounded=0;whiteSpace=wrap;html=1;fillColor=#ffe6cc;strokeColor=#d79b00;align=center;fontStyle=1" vertex="1" parent="1">
          <mxGeometry x="-20" y="263.75" width="130" height="32.5" as="geometry" />
        </mxCell>
        <mxCell id="UHXLGbQEo70m4h4iFwpo-72" value="" style="edgeStyle=orthogonalEdgeStyle;rounded=0;orthogonalLoop=1;jettySize=auto;html=1;" edge="1" parent="1" source="UHXLGbQEo70m4h4iFwpo-71" target="UHXLGbQEo70m4h4iFwpo-6">
          <mxGeometry relative="1" as="geometry" />
        </mxCell>
        <mxCell id="UHXLGbQEo70m4h4iFwpo-71" value="&lt;div style=&quot;&quot;&gt;&lt;div style=&quot;text-align: center;&quot;&gt;Strumenti&lt;/div&gt;&lt;ul&gt;&lt;li&gt;Calcolatrice&lt;/li&gt;&lt;li style=&quot;&quot;&gt;Generatore di Password&lt;/li&gt;&lt;/ul&gt;&lt;/div&gt;" style="rounded=0;whiteSpace=wrap;html=1;fillColor=#ffe6cc;strokeColor=#d79b00;align=left;fontStyle=1" vertex="1" parent="1">
          <mxGeometry x="670" y="243.44" width="200" height="73.12" as="geometry" />
        </mxCell>
        <mxCell id="UHXLGbQEo70m4h4iFwpo-77" value="" style="edgeStyle=orthogonalEdgeStyle;rounded=0;orthogonalLoop=1;jettySize=auto;html=1;" edge="1" parent="1" source="UHXLGbQEo70m4h4iFwpo-74" target="UHXLGbQEo70m4h4iFwpo-8">
          <mxGeometry relative="1" as="geometry" />
        </mxCell>
        <mxCell id="UHXLGbQEo70m4h4iFwpo-74" value="Elenco D&lt;span style=&quot;background-color: initial;&quot;&gt;ati&amp;nbsp;&lt;/span&gt;&lt;div&gt;&lt;span style=&quot;background-color: initial;&quot;&gt;Hashing Password&lt;/span&gt;&lt;/div&gt;" style="rounded=0;whiteSpace=wrap;html=1;fillColor=#ffe6cc;strokeColor=#d79b00;align=center;fontStyle=1" vertex="1" parent="1">
          <mxGeometry x="-30" y="362.5" width="140" height="55" as="geometry" />
        </mxCell>
        <mxCell id="UHXLGbQEo70m4h4iFwpo-100" style="edgeStyle=orthogonalEdgeStyle;rounded=0;orthogonalLoop=1;jettySize=auto;html=1;entryX=0;entryY=0.5;entryDx=0;entryDy=0;" edge="1" parent="1" source="UHXLGbQEo70m4h4iFwpo-80" target="UHXLGbQEo70m4h4iFwpo-99">
          <mxGeometry relative="1" as="geometry" />
        </mxCell>
        <mxCell id="UHXLGbQEo70m4h4iFwpo-80" value="Index" style="shape=process;whiteSpace=wrap;html=1;backgroundOutline=1;fillColor=#f8cecc;strokeColor=#b85450;fontSize=15;fontStyle=1" vertex="1" parent="1">
          <mxGeometry x="200" y="1130" width="120" height="60" as="geometry" />
        </mxCell>
        <mxCell id="UHXLGbQEo70m4h4iFwpo-106" style="edgeStyle=orthogonalEdgeStyle;rounded=0;orthogonalLoop=1;jettySize=auto;html=1;entryX=0;entryY=0.5;entryDx=0;entryDy=0;" edge="1" parent="1" source="UHXLGbQEo70m4h4iFwpo-82" target="UHXLGbQEo70m4h4iFwpo-105">
          <mxGeometry relative="1" as="geometry" />
        </mxCell>
        <mxCell id="UHXLGbQEo70m4h4iFwpo-82" value="Archivio Videogiochi" style="shape=process;whiteSpace=wrap;html=1;backgroundOutline=1;fillColor=#f8cecc;strokeColor=#b85450;fontSize=15;fontStyle=1" vertex="1" parent="1">
          <mxGeometry x="200" y="1730" width="120" height="60" as="geometry" />
        </mxCell>
        <mxCell id="UHXLGbQEo70m4h4iFwpo-104" style="edgeStyle=orthogonalEdgeStyle;rounded=0;orthogonalLoop=1;jettySize=auto;html=1;entryX=0;entryY=0.5;entryDx=0;entryDy=0;" edge="1" parent="1" source="UHXLGbQEo70m4h4iFwpo-83" target="UHXLGbQEo70m4h4iFwpo-103">
          <mxGeometry relative="1" as="geometry" />
        </mxCell>
        <mxCell id="UHXLGbQEo70m4h4iFwpo-83" value="Pagina Profilo" style="shape=process;whiteSpace=wrap;html=1;backgroundOutline=1;fillColor=#f8cecc;strokeColor=#b85450;fontSize=15;fontStyle=1" vertex="1" parent="1">
          <mxGeometry x="200" y="1530" width="120" height="60" as="geometry" />
        </mxCell>
        <mxCell id="UHXLGbQEo70m4h4iFwpo-108" style="edgeStyle=orthogonalEdgeStyle;rounded=0;orthogonalLoop=1;jettySize=auto;html=1;entryX=0;entryY=0.5;entryDx=0;entryDy=0;" edge="1" parent="1" source="UHXLGbQEo70m4h4iFwpo-84" target="UHXLGbQEo70m4h4iFwpo-107">
          <mxGeometry relative="1" as="geometry" />
        </mxCell>
        <mxCell id="UHXLGbQEo70m4h4iFwpo-84" value="Strumenti" style="shape=process;whiteSpace=wrap;html=1;backgroundOutline=1;fillColor=#f8cecc;strokeColor=#b85450;fontSize=15;fontStyle=1" vertex="1" parent="1">
          <mxGeometry x="200" y="1930" width="120" height="60" as="geometry" />
        </mxCell>
        <mxCell id="UHXLGbQEo70m4h4iFwpo-110" style="edgeStyle=orthogonalEdgeStyle;rounded=0;orthogonalLoop=1;jettySize=auto;html=1;entryX=0;entryY=0.5;entryDx=0;entryDy=0;" edge="1" parent="1" source="UHXLGbQEo70m4h4iFwpo-85" target="UHXLGbQEo70m4h4iFwpo-109">
          <mxGeometry relative="1" as="geometry" />
        </mxCell>
        <mxCell id="UHXLGbQEo70m4h4iFwpo-85" value="Termini e&amp;nbsp;&lt;div&gt;&lt;span style=&quot;background-color: initial;&quot;&gt;Condizioni&lt;/span&gt;&lt;/div&gt;" style="shape=process;whiteSpace=wrap;html=1;backgroundOutline=1;fillColor=#f8cecc;strokeColor=#b85450;fontSize=15;fontStyle=1" vertex="1" parent="1">
          <mxGeometry x="200" y="2130" width="120" height="60" as="geometry" />
        </mxCell>
        <mxCell id="UHXLGbQEo70m4h4iFwpo-112" style="edgeStyle=orthogonalEdgeStyle;rounded=0;orthogonalLoop=1;jettySize=auto;html=1;entryX=0;entryY=0.5;entryDx=0;entryDy=0;" edge="1" parent="1" source="UHXLGbQEo70m4h4iFwpo-86" target="UHXLGbQEo70m4h4iFwpo-111">
          <mxGeometry relative="1" as="geometry" />
        </mxCell>
        <mxCell id="UHXLGbQEo70m4h4iFwpo-86" value="DataBase" style="shape=process;whiteSpace=wrap;html=1;backgroundOutline=1;fillColor=#f8cecc;strokeColor=#b85450;fontSize=15;fontStyle=1" vertex="1" parent="1">
          <mxGeometry x="200" y="2330" width="120" height="60" as="geometry" />
        </mxCell>
        <mxCell id="UHXLGbQEo70m4h4iFwpo-102" value="" style="edgeStyle=orthogonalEdgeStyle;rounded=0;orthogonalLoop=1;jettySize=auto;html=1;" edge="1" parent="1" source="UHXLGbQEo70m4h4iFwpo-87" target="UHXLGbQEo70m4h4iFwpo-101">
          <mxGeometry relative="1" as="geometry" />
        </mxCell>
        <mxCell id="UHXLGbQEo70m4h4iFwpo-87" value="L&lt;span style=&quot;background-color: initial;&quot;&gt;ogin/&lt;/span&gt;&lt;div&gt;&lt;span style=&quot;background-color: initial;&quot;&gt;Accesso&lt;/span&gt;&lt;/div&gt;" style="shape=process;whiteSpace=wrap;html=1;backgroundOutline=1;fillColor=#f8cecc;strokeColor=#b85450;fontSize=15;fontStyle=1" vertex="1" parent="1">
          <mxGeometry x="200" y="1330" width="120" height="60" as="geometry" />
        </mxCell>
        <mxCell id="UHXLGbQEo70m4h4iFwpo-99" value="&lt;div style=&quot;font-size: 14px;&quot;&gt;&lt;span style=&quot;background-color: initial;&quot;&gt;Titolo&lt;/span&gt;&lt;br&gt;&lt;/div&gt;&lt;div style=&quot;font-size: 14px;&quot;&gt;&lt;br style=&quot;font-size: 14px;&quot;&gt;&lt;/div&gt;&lt;div style=&quot;font-size: 14px;&quot;&gt;Menù&lt;/div&gt;&lt;div style=&quot;font-size: 14px;&quot;&gt;&lt;br style=&quot;font-size: 14px;&quot;&gt;&lt;/div&gt;&lt;div style=&quot;font-size: 14px;&quot;&gt;Barra di ricerca videogioco&lt;/div&gt;&lt;div style=&quot;font-size: 14px;&quot;&gt;&lt;br style=&quot;font-size: 14px;&quot;&gt;&lt;/div&gt;&lt;div style=&quot;font-size: 14px;&quot;&gt;Descrizione sito web&lt;br&gt;&lt;/div&gt;&lt;div style=&quot;font-size: 14px;&quot;&gt;&lt;br&gt;&lt;/div&gt;&lt;div style=&quot;font-size: 14px;&quot;&gt;Termini e Condizioni&lt;/div&gt;" style="rounded=1;whiteSpace=wrap;html=1;fillColor=#dae8fc;strokeColor=#6c8ebf;fontStyle=1;fontSize=14;" vertex="1" parent="1">
          <mxGeometry x="380" y="1077.5" width="230" height="165" as="geometry" />
        </mxCell>
        <mxCell id="UHXLGbQEo70m4h4iFwpo-101" value="&lt;div style=&quot;font-size: 14px;&quot;&gt;&lt;span style=&quot;background-color: initial;&quot;&gt;Titolo&lt;/span&gt;&lt;br&gt;&lt;/div&gt;&lt;div style=&quot;font-size: 14px;&quot;&gt;&lt;br&gt;&lt;/div&gt;&lt;div style=&quot;font-size: 14px;&quot;&gt;Schermata di login/accesso&lt;/div&gt;&lt;div style=&quot;font-size: 14px;&quot;&gt;&lt;br&gt;&lt;/div&gt;&lt;div style=&quot;font-size: 14px;&quot;&gt;Termini e Condizioni&lt;/div&gt;" style="rounded=1;whiteSpace=wrap;html=1;fillColor=#dae8fc;strokeColor=#6c8ebf;fontStyle=1;fontSize=14;" vertex="1" parent="1">
          <mxGeometry x="380" y="1308.75" width="230" height="102.5" as="geometry" />
        </mxCell>
        <mxCell id="UHXLGbQEo70m4h4iFwpo-103" value="&lt;div style=&quot;font-size: 14px;&quot;&gt;&lt;span style=&quot;background-color: initial;&quot;&gt;Titolo&lt;/span&gt;&lt;br&gt;&lt;/div&gt;&lt;div style=&quot;font-size: 14px;&quot;&gt;&lt;br style=&quot;font-size: 14px;&quot;&gt;&lt;/div&gt;&lt;div style=&quot;font-size: 14px;&quot;&gt;Menù&lt;/div&gt;&lt;div style=&quot;font-size: 14px;&quot;&gt;&lt;br style=&quot;font-size: 14px;&quot;&gt;&lt;/div&gt;&lt;div style=&quot;font-size: 14px;&quot;&gt;Dati profilo&lt;/div&gt;&lt;div style=&quot;font-size: 14px;&quot;&gt;&lt;br&gt;&lt;/div&gt;&lt;div style=&quot;font-size: 14px;&quot;&gt;Termini e Condizioni&lt;/div&gt;" style="rounded=1;whiteSpace=wrap;html=1;fillColor=#dae8fc;strokeColor=#6c8ebf;fontStyle=1;fontSize=14;" vertex="1" parent="1">
          <mxGeometry x="380" y="1493.75" width="230" height="132.5" as="geometry" />
        </mxCell>
        <mxCell id="UHXLGbQEo70m4h4iFwpo-105" value="&lt;div style=&quot;font-size: 14px;&quot;&gt;&lt;span style=&quot;background-color: initial;&quot;&gt;Titolo&lt;/span&gt;&lt;br&gt;&lt;/div&gt;&lt;div style=&quot;font-size: 14px;&quot;&gt;&lt;br style=&quot;font-size: 14px;&quot;&gt;&lt;/div&gt;&lt;div style=&quot;font-size: 14px;&quot;&gt;Menù&lt;/div&gt;&lt;div style=&quot;font-size: 14px;&quot;&gt;&lt;br style=&quot;font-size: 14px;&quot;&gt;&lt;/div&gt;&lt;div style=&quot;font-size: 14px;&quot;&gt;Barra di ricerca videogioco&lt;/div&gt;&lt;div style=&quot;font-size: 14px;&quot;&gt;&lt;br style=&quot;font-size: 14px;&quot;&gt;&lt;/div&gt;&lt;div style=&quot;font-size: 14px;&quot;&gt;Descrizione pagina web&lt;br&gt;&lt;/div&gt;&lt;div style=&quot;font-size: 14px;&quot;&gt;&lt;br&gt;&lt;/div&gt;&lt;div style=&quot;font-size: 14px;&quot;&gt;Termini e Condizioni&lt;/div&gt;" style="rounded=1;whiteSpace=wrap;html=1;fillColor=#dae8fc;strokeColor=#6c8ebf;fontStyle=1;fontSize=14;" vertex="1" parent="1">
          <mxGeometry x="380" y="1677.5" width="230" height="165" as="geometry" />
        </mxCell>
        <mxCell id="UHXLGbQEo70m4h4iFwpo-107" value="&lt;div style=&quot;font-size: 14px;&quot;&gt;&lt;span style=&quot;background-color: initial;&quot;&gt;Titolo&lt;/span&gt;&lt;br&gt;&lt;/div&gt;&lt;div style=&quot;font-size: 14px;&quot;&gt;&lt;br&gt;&lt;/div&gt;&lt;div style=&quot;font-size: 14px;&quot;&gt;Strumenti&lt;/div&gt;&lt;div style=&quot;font-size: 14px;&quot;&gt;&lt;br&gt;&lt;/div&gt;&lt;div style=&quot;font-size: 14px;&quot;&gt;&lt;span style=&quot;background-color: initial;&quot;&gt;Descrizione strumenti&lt;/span&gt;&lt;br&gt;&lt;/div&gt;&lt;div style=&quot;font-size: 14px;&quot;&gt;&lt;br&gt;&lt;/div&gt;&lt;div style=&quot;font-size: 14px;&quot;&gt;Termini e Condizioni&lt;/div&gt;" style="rounded=1;whiteSpace=wrap;html=1;fillColor=#dae8fc;strokeColor=#6c8ebf;fontStyle=1;fontSize=14;" vertex="1" parent="1">
          <mxGeometry x="380" y="1877.5" width="230" height="165" as="geometry" />
        </mxCell>
        <mxCell id="UHXLGbQEo70m4h4iFwpo-109" value="&lt;div style=&quot;font-size: 14px;&quot;&gt;&lt;span style=&quot;background-color: initial;&quot;&gt;Titolo&lt;/span&gt;&lt;/div&gt;&lt;div style=&quot;font-size: 14px;&quot;&gt;&lt;br&gt;&lt;/div&gt;&lt;div style=&quot;font-size: 14px;&quot;&gt;Termini e Condizioni&lt;/div&gt;" style="rounded=1;whiteSpace=wrap;html=1;fillColor=#dae8fc;strokeColor=#6c8ebf;fontStyle=1;fontSize=14;" vertex="1" parent="1">
          <mxGeometry x="380" y="2128.75" width="230" height="62.5" as="geometry" />
        </mxCell>
        <mxCell id="UHXLGbQEo70m4h4iFwpo-111" value="&lt;div style=&quot;font-size: 14px;&quot;&gt;&lt;span style=&quot;background-color: initial;&quot;&gt;Titolo&lt;/span&gt;&lt;br&gt;&lt;/div&gt;&lt;div style=&quot;font-size: 14px;&quot;&gt;&lt;br style=&quot;font-size: 14px;&quot;&gt;&lt;/div&gt;&lt;div style=&quot;font-size: 14px;&quot;&gt;Elenco dati utenti&lt;/div&gt;&lt;div style=&quot;font-size: 14px;&quot;&gt;&lt;br&gt;&lt;/div&gt;&lt;div style=&quot;font-size: 14px;&quot;&gt;Termini e Condizioni&lt;/div&gt;" style="rounded=1;whiteSpace=wrap;html=1;fillColor=#dae8fc;strokeColor=#6c8ebf;fontStyle=1;fontSize=14;" vertex="1" parent="1">
          <mxGeometry x="380" y="2308.75" width="220" height="102.5" as="geometry" />
        </mxCell>
      </root>
    </mxGraphModel>
  </diagram>
</mxfile>
